# xmcd
#
# Track frame offsets:
#	150
#	21472
#	41407
#	59973
#	83863
#	101623
#	118257
#	143198
#	166789
#	187680
#	207446
#
# Disc length: 2979 seconds
#
# Revision: 9
# Processed by: cddbd v1.5.2PL0 Copyright (c) Steve Scherf et al.
# Submitted via: Jack! The Knife 20 Magnifico
#
DISCID=9b0ba10b
DTITLE=Marlene Kuntz - Nella Tua Luce
DYEAR=2013
DGENRE=Rock
TTITLE0=Nella Tua Luce
TTITLE1=Il Genio (L'importanza di essere Oscar Wilde)
TTITLE2=Catastrofe
TTITLE3=Osja, Amore Mio
TTITLE4=Seduzione
TTITLE5=Adele
TTITLE6=Su Quelle Sponde
TTITLE7=Giacomo Eremita
TTITLE8=Senza Rete
TTITLE9=La Tua Giornata Magnifica
TTITLE10=Solstizio
EXTD=
EXTT0=Godano, Tesio, Bergia, Saporiti, Arneodo
EXTT1=Godano, Tesio, Bergia, Saporiti, Arneodo
EXTT2=Godano, Tesio, Bergia, Saporiti, Arneodo
EXTT3=Godano, Tesio, Bergia, Saporiti, Arneodo
EXTT4=Godano, Tesio, Bergia, Saporiti, Arneodo
EXTT5=Godano, Tesio, Bergia, Saporiti, Arneodo
EXTT6=Godano, Tesio, Bergia, Saporiti, Arneodo
EXTT7=Godano, Tesio, Bergia, Saporiti, Arneodo
EXTT8=Godano, Tesio, Bergia, Saporiti, Arneodo
EXTT9=Godano, Tesio, Bergia, Saporiti, Arneodo
EXTT10=Godano, Tesio, Bergia, Saporiti, Arneodo
PLAYORDER=
